<svg width="149" height="144" viewBox="0 0 149 144" fill="none" xmlns="http://www.w3.org/2000/svg">
<path d="M4.83941 9.71027C3.22941 27.9303 1.6294 46.1403 0.0194008 64.3603C-0.280599 67.7303 2.95941 68.8203 5.52941 67.5403C8.88941 65.8803 10.5294 61.8403 10.8294 58.3503C12.4394 40.1303 14.0394 21.9203 15.6494 3.70026C15.9494 0.330261 12.7094 -0.759732 10.1394 0.520268C6.77941 2.18027 5.13941 6.22027 4.83941 9.71027Z" fill="#DCA0FF"/>
<path d="M63.8194 19.1602C52.0494 35.9702 42.0594 53.7202 33.7994 72.5002C32.7394 74.9202 32.6594 79.2702 35.9694 79.8002C39.4194 80.3602 42.1894 75.9102 43.2994 73.3802C50.4494 57.1202 59.1494 41.5002 69.3394 26.9502C71.0294 24.5402 73.4094 20.2402 71.2294 17.3902C69.1994 14.7302 65.2694 17.0902 63.8194 19.1602Z" fill="#DCA0FF"/>
<path d="M118.929 66.9303C102.079 74.6703 84.3594 80.4003 68.2194 89.6403C65.2094 91.3603 62.7394 95.2903 62.9194 98.8303C63.0794 101.97 65.5394 103.67 68.4294 102.01C84.5694 92.7703 102.299 87.0403 119.139 79.3003C124.389 76.8903 127.029 63.2103 118.929 66.9303Z" fill="#DCA0FF"/>
<path d="M83.3294 143.47C102.329 140.54 121.289 138.47 140.449 136.97C143.979 136.69 146.609 133.78 147.779 130.55C148.439 128.75 149.179 122.97 145.609 123.25C125.579 124.82 105.739 126.91 85.8694 129.98C80.3294 130.83 75.6594 144.65 83.3294 143.47Z" fill="#DCA0FF"/>
</svg>
