<svg width="360" height="224" viewBox="0 0 360 224" fill="none" xmlns="http://www.w3.org/2000/svg">
<path d="M31.3201 154.645C44.9201 145.545 58.5801 136.535 72.3601 127.725C79.4001 123.225 86.4601 118.775 93.5701 114.395C95.0401 113.495 100.92 110.045 94.5201 113.805C96.0601 112.905 97.5801 111.955 99.1101 111.025C102.94 108.725 106.78 106.435 110.64 104.185C138.95 87.6852 168.04 72.4352 198.13 59.4352C202.52 57.5352 206.94 55.7252 211.36 53.8952C214.09 52.7652 209.19 54.7552 209.2 54.7552C210.32 54.3652 211.42 53.8752 212.53 53.4452C214.75 52.5752 216.99 51.7252 219.22 50.8852C228.2 47.5052 237.27 44.3552 246.39 41.3552C242.18 31.7652 237.97 22.1752 233.75 12.5852C184.69 55.5552 137.2 100.265 91.6601 146.955C76.6101 162.385 59.3701 180.725 62.4801 204.065C63.1201 208.855 68.1801 212.495 72.6401 213.115C79.1501 214.025 85.3201 212.075 91.2001 209.425C167.76 174.925 244.32 140.435 320.87 105.935C316.15 94.9852 311.44 84.0252 306.72 73.0752C280.46 92.8752 254.24 112.725 228 132.555C214.27 142.925 199.72 152.805 187.35 164.825C174.32 177.475 162.47 195.395 166.02 214.395C168.03 225.165 181.07 224.725 189.04 222.705C239.81 209.855 289.4 193.365 337.74 173.215C348.2 168.855 359.86 156.585 359.68 144.715C359.5 132.845 346.25 130.475 337.12 134.025C290.76 152.035 243.44 167.605 195.25 179.915C202.92 182.685 210.6 185.455 218.27 188.225C218.1 187.515 217.98 186.795 217.91 186.065C217.76 184.545 217.75 185.115 217.89 187.765C217.93 187.065 218.01 186.375 218.14 185.685C218.46 183.985 218.19 184.745 217.33 187.975C217.74 187.815 218.52 185.095 218.69 184.675C219.56 182.915 219.07 183.785 217.23 187.295C217.63 186.655 218.05 186.035 218.5 185.425C221.51 181.205 217.31 185.815 217.18 186.865C217.27 186.195 220.01 183.895 220.48 183.425C221.61 182.325 222.75 181.075 224.03 180.155C222.57 181.205 218.38 184.875 222.31 181.745C233.62 172.745 245.34 164.215 256.86 155.485C280.44 137.595 304.04 119.725 327.61 101.815C335.8 95.5852 346.94 83.4752 342.08 72.2552C337.24 61.0552 321.85 65.1252 313.46 68.9552C236.97 103.815 160.49 138.665 84.0001 173.525C93.5701 175.315 103.14 177.105 112.72 178.885C112.48 176.675 112.41 176.795 112.52 179.255C112.58 178.235 112.72 177.215 112.93 176.215C111.97 179.175 111.9 179.505 112.73 177.225C113.13 176.245 113.59 175.275 114.09 174.335C112.27 177.545 112.09 178.005 113.53 175.725C114.16 174.805 114.82 173.895 115.5 173.015C117.32 170.735 116.89 171.235 114.22 174.515C114.96 173.665 115.72 172.825 116.49 172.005C122.83 165.145 129.46 158.525 136.01 151.855C149.79 137.825 163.74 123.955 177.86 110.265C206.18 82.8052 235.16 56.0352 264.83 30.0452C270.69 24.9052 276.15 14.5952 272.85 6.95522C269.51 -0.774776 259.21 -1.03478 252.2 1.26522C184.21 23.6352 121.6 59.2052 61.6901 97.8352C45.4401 108.315 29.3901 119.095 13.4101 129.995C8.66011 133.235 3.72011 138.755 1.51011 144.155C0.0101095 147.815 -1.08989 153.785 1.83011 157.235C9.47011 166.255 23.6101 159.795 31.3201 154.635V154.645Z" fill="#DCA0FF"/>
</svg>
