<svg width="485" height="76" viewBox="0 0 485 76" fill="none" xmlns="http://www.w3.org/2000/svg">
<path d="M2.23148 17.6093C26.6415 17.5393 51.0515 17.6093 75.4515 17.1493C87.6515 16.9193 99.8415 16.6093 112.021 15.9493C124.361 15.2793 136.671 16.1093 149.011 15.6693C200.211 13.8693 251.411 13.1893 302.621 11.9593C327.091 11.3793 351.511 10.5893 375.991 11.2993C399.881 11.9893 423.791 10.9593 447.671 12.1393C456.701 12.5893 465.561 13.3393 474.421 15.0893C474.961 15.1993 475.461 15.7493 475.961 15.8293L475.881 15.7593C473.661 13.9393 474.631 11.2893 478.791 7.79932C477.991 7.79932 476.561 8.53933 475.781 8.72933C471.341 9.77933 466.761 10.2793 462.241 10.8293C451.011 12.1993 439.761 14.2893 428.441 14.6993C416.271 15.1393 404.181 15.5693 392.021 16.3993C342.161 19.7893 292.191 20.2993 242.331 23.4393C194.791 26.4293 146.911 25.2793 99.6215 31.8293C93.6015 32.6593 85.4515 33.6293 84.1515 41.0393C83.0315 47.4493 90.4315 48.0293 95.0715 48.6993C117.761 51.9893 140.821 50.7393 163.641 51.9493C189.011 53.2893 214.601 53.1293 240.011 52.9093C264.921 52.6993 289.761 53.9193 314.651 54.4393C325.841 54.6793 337.041 55.1493 348.201 55.9593C353.121 56.3193 358.061 56.6893 362.931 57.4893C364.371 57.7293 365.871 58.2693 367.311 58.4293C367.631 58.4593 368.041 58.8993 368.321 58.8893C366.611 58.9593 373.461 51.3593 370.101 51.6993C366.341 52.0793 362.441 53.5193 358.621 54.0493C353.241 54.7893 347.831 55.3393 342.431 55.9493C330.441 57.3093 318.411 57.6593 306.361 58.1693C281.281 59.2293 256.251 59.8893 231.161 60.3793C206.001 60.8693 180.861 62.1393 155.701 62.7493C144.201 63.0293 132.731 63.6893 121.251 64.3693C116.591 64.6493 112.141 75.6393 117.121 75.3493C142.161 73.8593 167.211 73.6493 192.261 72.4893C218.671 71.2693 245.111 71.5993 271.521 70.3793C295.541 69.2693 319.651 69.1493 343.561 66.3693C352.031 65.3893 362.501 65.5993 370.261 61.5893C374.731 59.2793 379.751 51.3093 373.581 48.1493C370.951 46.7993 367.431 46.5293 364.571 46.1493C358.691 45.3693 352.761 44.9793 346.841 44.6093C335.031 43.8893 323.221 43.5293 311.391 43.3193C285.631 42.8493 259.931 42.0993 234.161 41.9693C221.221 41.9093 208.291 41.5893 195.351 41.7293C182.451 41.8693 169.641 40.7993 156.761 40.5993C144.731 40.4093 132.721 40.2193 120.701 39.5493C115.181 39.2393 109.651 38.8993 104.151 38.3193C100.381 37.9193 96.5115 36.6493 92.8115 36.3593C90.2615 36.1593 87.5115 44.1793 89.3115 44.2293C90.3915 44.2593 91.8215 43.5693 92.9215 43.3593C98.1715 42.3393 103.531 41.8693 108.851 41.3493C120.081 40.2593 131.311 39.3293 142.571 38.5093C168.081 36.6493 193.681 36.5893 219.231 35.3393C245.131 34.0793 270.981 32.2593 296.921 31.7393C322.811 31.2193 348.741 29.9793 374.571 28.1993C387.041 27.3393 399.571 26.2093 412.061 25.9193C423.721 25.6493 435.061 25.0393 446.621 23.3693C456.101 21.9993 466.281 21.8993 475.491 19.0893C480.061 17.6993 487.231 11.5993 483.021 6.36933C481.501 4.47933 478.401 3.99932 476.191 3.52932C471.051 2.43932 465.731 2.06932 460.511 1.68932C449.101 0.869322 437.631 0.449329 426.191 0.509329C401.051 0.649329 375.931 -0.0906708 350.801 0.0093292C326.031 0.119329 301.291 1.40932 276.521 1.32932C249.971 1.23932 223.351 2.59932 196.811 3.21932C182.911 3.53932 169.031 4.05933 155.141 4.61933C142.761 5.11933 130.391 4.24933 118.011 4.86933C93.0115 6.12933 67.8515 6.90933 42.8215 6.45933C30.6715 6.23933 18.5315 6.58933 6.38148 6.61933C1.71148 6.62933 -2.86852 17.6093 2.25148 17.5993L2.23148 17.6093Z" fill="#DCA0FF"/>
</svg>
