<svg width="171" height="165" viewBox="0 0 171 165" fill="none" xmlns="http://www.w3.org/2000/svg">
<g clip-path="url(#clip0_1_36)">
<path d="M8.92999 147.75V131.84H5.48999V128.14H8.92999V125.7C8.92999 122 11.11 120 15.18 120H19.43V123.7H15.47C14.06 123.7 13.29 124.51 13.29 125.99V128.14H18.99V131.84H13.29V147.75H8.91999H8.92999Z" fill="black"/>
<path d="M19.51 137.76C19.51 131.36 23.84 127.55 29.57 127.55C35.9 127.55 39.6 131.99 39.6 137.76C39.6 144.38 35.42 148.3 29.57 148.3C23.21 148.3 19.51 143.82 19.51 137.76ZM35.16 137.76C35.16 133.87 32.98 131.28 29.57 131.28C26.16 131.28 23.95 133.87 23.95 137.76C23.95 142.05 26.36 144.57 29.57 144.57C33.09 144.57 35.16 141.68 35.16 137.76Z" fill="black"/>
<path d="M42.64 147.75V128.14H46.15L46.67 131.99C47.93 129.32 50.22 127.92 53.48 127.92H54.22V132.17H53.48C49.41 132.17 47 134.35 47 138.05V147.74H42.63L42.64 147.75Z" fill="black"/>
<path d="M68.61 144.27L68.2 147.75H64.68V120H69.05V130.69C70.46 128.77 72.79 127.55 75.56 127.55C80.74 127.55 84.4 131.77 84.4 137.84C84.4 143.91 80.74 148.31 75.52 148.31C72.41 148.31 69.82 146.76 68.6 144.28L68.61 144.27ZM79.93 137.83C79.93 133.95 77.75 131.24 74.56 131.24C71.37 131.24 69.05 133.9 69.05 137.72C69.05 141.75 71.34 144.6 74.56 144.6C77.78 144.6 79.93 141.82 79.93 137.83Z" fill="black"/>
<path d="M86.59 138.02C86.59 131.54 90.85 127.55 96.32 127.55C101.79 127.55 105.57 131.43 105.68 137.8V138.84H90.95C91.25 142.28 93.39 144.61 96.72 144.61C98.98 144.61 100.68 143.5 101.35 141.54H105.6C104.6 145.76 101.31 148.31 96.68 148.31C90.69 148.31 86.58 144.02 86.58 138.02H86.59ZM101.17 135.76C100.62 132.95 98.88 131.25 96.32 131.25C93.76 131.25 91.81 132.95 91.14 135.76H101.17Z" fill="black"/>
<path d="M116.71 147.75C112.46 147.75 110.16 145.64 110.16 141.76V131.84H106.72V128.14H110.16V121.44H114.53V128.14H121.34V121.44H125.71V128.14H130.78V131.84H125.71V141.46C125.71 143.13 126.56 144.05 128.19 144.05H130.41V147.75H127.89C123.64 147.75 121.34 145.64 121.34 141.76V131.84H114.53V141.46C114.53 143.13 115.38 144.05 117.01 144.05H119.23V147.75H116.71Z" fill="black"/>
<path d="M131.8 138.02C131.8 131.54 136.05 127.55 141.53 127.55C147.01 127.55 150.78 131.43 150.89 137.8V138.84H136.16C136.46 142.28 138.6 144.61 141.93 144.61C144.19 144.61 145.89 143.5 146.55 141.54H150.81C149.81 145.76 146.52 148.31 141.89 148.31C135.9 148.31 131.79 144.02 131.79 138.02H131.8ZM146.38 135.76C145.82 132.95 144.09 131.25 141.53 131.25C138.97 131.25 137.02 132.95 136.35 135.76H146.38Z" fill="black"/>
<path d="M153.93 147.75V128.14H157.44L157.96 131.99C159.22 129.32 161.51 127.92 164.77 127.92H165.51V132.17H164.77C160.7 132.17 158.29 134.35 158.29 138.05V147.74H153.92L153.93 147.75Z" fill="black"/>
<path d="M1.45001 164.95C27.58 160.44 54.21 158.79 80.69 158.18C109.34 157.53 138.23 158.05 166.7 161.54C168.92 161.81 172.95 157.35 169.89 156.93C141.58 153.07 112.84 152.55 84.32 153.38C57.28 154.17 30 155.96 3.31001 160.57C1.20001 160.93 -1.83999 165.51 1.45001 164.94V164.95Z" fill="#DCA0FF"/>
<path fill-rule="evenodd" clip-rule="evenodd" d="M130.83 33.51C128.69 32.13 125.29 30.9 120.57 30.9C110.7 30.9 105.32 37.97 103.44 46.95C100.76 59.74 106.48 65.18 113.38 65.18C116.58 65.18 117.84 64.3 117.84 64.3L120.3 52.41H112.75L114.32 44.86H132.39L126.91 70.62C126.91 70.62 121.61 72.99 112.5 72.99C98.28 72.99 89.19 61.86 92.43 46.58C95.65 31.38 106.7 23.06 120.67 23.06C124.62 23.06 129.55 23.73 132.83 25.23L130.81 33.51H130.83ZM81.37 71.98L91.4 24.15H80.56L70.52 71.98H81.36H81.37ZM69.05 33.51C66.38 32.24 62.62 31.01 58.94 31.01C55.26 31.01 51.45 31.88 50.73 35.63C50.03 39.29 53.31 41.45 58.81 44.49C67.72 49.42 68.51 55.14 67.39 60.52C65.56 69.28 57.55 73.04 48.1 72.94C39.29 72.85 33.15 69.83 33.15 69.83L35.24 61.48C37.26 62.69 42.7 65.08 48.38 65.08C53.55 65.08 55.77 63.14 56.36 60.3C57.14 56.55 55.34 54.16 50.27 51.34C43.51 47.58 38.1 43.48 39.72 35.74C41.75 26.03 50.91 23.06 58.64 23.06C63.02 23.06 67.56 23.63 71.22 25.16L69.06 33.51H69.05ZM162.3 50C162.3 77.61 127.92 100 85.5 100C43.08 100 8.70001 77.61 8.70001 50C8.70001 22.39 43.09 0 85.5 0C127.91 0 162.3 22.39 162.3 50ZM85.5 6.82C46.6 6.82 15.07 26.15 15.07 50C15.07 73.85 46.6 93.18 85.5 93.18C124.4 93.18 155.93 73.85 155.93 50C155.93 26.15 124.4 6.82 85.5 6.82Z" fill="#0033A0"/>
</g>
<defs>
<clipPath id="clip0_1_36">
<rect width="171" height="165" fill="white"/>
</clipPath>
</defs>
</svg>
