<svg width="357" height="187" viewBox="0 0 357 187" fill="none" xmlns="http://www.w3.org/2000/svg">
<g opacity="0.6">
<path d="M241.817 58.4628C234.677 45.9328 227.817 32.5928 219.007 21.1428C216.007 17.1928 212.417 17.8328 207.697 17.7428C198.877 17.5828 190.047 17.6628 181.227 17.7428C174.747 17.7894 168.267 17.8628 161.787 17.9628C159.587 17.9628 157.627 19.9628 156.667 21.6828C151.667 30.8128 145.147 38.9328 140.037 47.9628C137.257 52.8828 135.927 57.2228 136.147 62.8128C136.487 71.4428 136.527 80.0828 136.597 88.7128C136.807 115.103 136.717 141.483 136.597 167.873C136.503 188.066 136.38 208.259 136.227 228.453C136.092 229.99 136.092 231.536 136.227 233.073C136.597 235.283 137.857 235.813 139.637 237.073L166.287 256.593C168.537 258.253 171.397 261.413 174.347 261.483C178.437 261.583 183.227 259.943 187.207 259.193C203.587 256.103 220.567 253.083 236.097 246.873C237.777 246.203 240.467 244.643 240.487 242.493L241.047 180.703L241.937 82.7028L242.147 59.9228C242.147 55.2828 234.317 58.9228 234.287 62.2728L233.727 124.073L232.837 222.073L232.637 244.853L237.027 240.473C219.607 247.473 200.417 250.643 182.027 253.883C180.597 254.133 178.487 254.093 177.157 254.713C178.487 254.083 179.057 255.603 177.817 254.303C177.021 253.612 176.168 252.99 175.267 252.443L157.357 239.413L143.157 229.003L144.007 230.943C144.467 177.713 145.097 124.443 144.237 71.2128C144.157 66.3328 143.557 61.2128 143.837 56.3728C144.167 50.6028 148.717 45.0828 151.787 40.4828C156.047 34.1128 160.317 27.7828 163.987 21.0428L158.857 24.7628C172.437 24.5528 186.027 24.3928 199.607 24.4828C202.607 24.4828 205.607 24.4828 208.607 24.6528C209.309 24.6257 210.011 24.6895 210.697 24.8428C209.847 24.5428 210.757 25.1628 211.407 25.9828C216.307 32.1528 220.187 39.2928 224.207 46.0428C227.707 51.9028 231.15 57.7994 234.537 63.7328C236.357 66.8128 243.677 61.7328 241.817 58.4628Z" fill="#DCA0FF"/>
<path d="M136.357 59.8127C141.357 67.4427 150.487 71.9227 159.447 72.1627C165.817 72.3327 172.047 71.5127 178.377 71.9827C190.187 72.8527 202.167 73.1727 213.877 71.0927C221.877 69.6727 231.587 68.0927 238.727 63.9327C240.127 63.1227 242.727 61.1627 242.077 59.1827C241.427 57.2027 239.077 57.5127 237.607 58.3427C231.277 62.0427 222.227 63.4127 215.127 64.5727C204.127 66.3627 192.947 65.9927 181.897 65.1527C176.647 64.7527 171.617 65.3127 166.357 65.3827C157.427 65.5027 148.687 62.3827 143.607 54.5527C141.607 51.5527 134.317 56.6927 136.357 59.8127Z" fill="#DCA0FF"/>
<path d="M158.747 23.4128C159.547 26.2228 160.307 29.0528 160.897 31.9128C161.087 32.8128 161.107 36.1428 161.717 36.8328C161.357 36.4228 163.627 34.8828 161.507 36.4828C160.367 37.3528 159.337 38.4828 158.257 39.3928C151.947 44.9728 145.537 50.5428 138.747 55.5428C135.427 57.9828 137.797 61.2828 141.137 58.8228C148.997 53.0428 156.427 46.5428 163.687 40.0228C165.237 38.6428 167.317 37.2328 167.687 35.0228C168.417 30.6828 165.817 24.4328 164.687 20.4128C163.847 17.4728 158.047 20.8628 158.767 23.4128H158.747Z" fill="#DCA0FF"/>
<path d="M181.607 20.7228C178.94 24.3094 176.323 27.9128 173.757 31.5328C172.117 33.8128 169.347 36.5327 168.447 39.2627C167.607 41.8227 168.907 45.5528 169.347 48.0728C170.62 55.3528 172.14 62.5761 173.907 69.7427C174.637 72.6727 180.457 69.3327 179.827 66.7427C178.28 60.4961 176.927 54.2027 175.767 47.8627C175.327 45.4527 174.897 43.0428 174.537 40.6228C174.509 39.9986 174.419 39.3787 174.267 38.7727C173.767 37.5327 174.027 38.7728 173.927 38.9428C177.227 32.7928 182.297 27.1427 186.427 21.5227C189.057 17.9627 183.307 18.3828 181.607 20.6928V20.7228Z" fill="#DCA0FF"/>
<path d="M183.497 21.9328C180.977 37.7228 177.847 53.4028 175.327 69.1928C174.857 72.1928 180.207 69.8428 180.567 67.6328C183.087 51.8428 186.216 36.1528 188.736 20.3628C189.206 17.3628 183.857 19.7228 183.497 21.9328Z" fill="#DCA0FF"/>
<path d="M173.517 69.6527C172.007 122.553 172.947 175.593 172.727 228.513C172.727 238.823 172.727 249.133 172.497 259.443C172.427 264.083 180.297 260.443 180.357 257.093C181.257 203.543 180.737 149.953 181.057 96.4027C181.117 86.7027 181.057 76.9927 181.367 67.3027C181.507 62.6727 173.617 66.3027 173.517 69.6527Z" fill="#DCA0FF"/>
<path d="M175.177 18.1427C175.127 13.6427 174.367 8.31272 175.337 3.92272L171.967 7.92272C174.697 6.64272 179.747 6.98272 182.707 6.92272C187.008 6.85273 191.31 7.00294 195.597 7.37274C197.44 7.36397 199.28 7.5179 201.097 7.83273C203.01 7.47939 203.43 7.79273 202.357 8.77273L202.597 10.5027C202.408 14.688 202.435 18.8802 202.677 23.0627C202.887 26.7727 210.677 22.6427 210.507 19.1327C210.287 15.4027 212.507 4.13273 208.697 1.61273C206.697 0.272726 202.587 0.802726 200.257 0.612726C196.597 0.332726 192.937 0.132707 189.257 0.0927069C183.657 0.0227069 175.257 -0.597254 170.327 2.63275C165.107 6.08275 167.257 15.1927 167.327 20.5127C167.377 25.1727 175.217 21.5127 175.177 18.1627V18.1427Z" fill="#DCA0FF"/>
<path d="M69.4956 305.16C49.0056 300.1 28.3556 295.02 7.49557 291.76L9.09566 293.96L8.76558 228.31L8.24557 124.96L8.12569 101.21L6.67574 103.8L21.6057 88.8L30.7456 79.6C32.3456 77.98 34.6558 76.24 35.1857 73.93C35.6558 71.88 33.7156 65.26 35.5056 63.85C36.5056 63.06 41.5055 63.85 42.7155 63.85C52.4755 63.93 62.2356 64 71.9956 64.25C74.8356 64.32 80.7856 63.63 82.5656 66.45C84.4656 69.45 83.2456 75.96 83.3156 79.34L84.0356 76.82L62.9357 107.02C59.5658 111.84 67.1457 111.27 69.3457 108.12L83.5056 87.86C85.6956 84.73 88.1857 81.65 90.1457 78.36C91.9057 75.42 91.1456 71.46 91.0356 68.12C90.9356 62.88 89.8157 58.85 83.8557 57.82C80.5457 57.25 76.9657 57.46 73.6257 57.39C63.0257 57.15 52.4156 57.07 41.8156 57C37.3256 57 33.1955 57.42 29.9455 61.07C26.2155 65.29 27.2656 71.12 27.2956 76.32L28.7456 73.74L11.7456 90.85C8.74557 93.91 5.60569 96.92 2.62569 100.04C1.42872 101.056 0.590567 102.431 0.235556 103.96C-0.294444 107.21 0.235556 111.04 0.235556 114.32L0.345663 136.06L0.985556 262.27L1.15572 296.32C1.15572 297.43 1.51558 298.32 2.75558 298.52C23.6156 301.79 44.2756 306.87 64.7556 311.92C68.0156 312.73 73.9358 306.26 69.4358 305.15L69.4956 305.16Z" fill="#DCA0FF"/>
<path d="M28.8959 78.54L80.8959 80.61C81.972 80.7972 83.0682 80.8409 84.1559 80.74C84.4013 80.7055 84.6504 80.7055 84.8959 80.74C83.2859 80.65 83.6058 79.5 84.5458 80.99C87.9758 86.45 93.3557 91.12 97.2557 96.3C98.4857 97.94 100.896 100.61 101.196 101.7C101.31 102.697 101.31 103.703 101.196 104.7C101.196 107.4 101.246 110.1 101.276 112.8C101.729 157.293 102.062 201.787 102.276 246.28C102.316 256.453 102.316 266.627 102.276 276.8C102.276 281.45 102.536 286.25 102.086 290.89L105.466 286.89C92.8257 293.75 79.6058 299.65 66.5858 305.75L71.0858 307.37C70.8925 286.17 70.7158 264.967 70.5558 243.76C70.2858 208.2 70.0059 172.63 69.9259 137.07C69.9259 126.87 69.6258 116.6 70.0758 106.41C70.1558 104.74 69.0758 104.19 67.5858 104.17C47.1858 104 26.5857 101.6 6.50572 98.34C3.20572 97.81 -2.66422 104.39 1.82578 105.12C22.5558 108.47 43.6759 110.82 64.6759 111L62.1859 108.77C61.0859 133.35 62.0859 158.17 62.1859 182.77C62.3992 217.37 62.6557 251.967 62.9557 286.56L63.1659 309.75C63.1659 312.41 65.7759 312.26 67.6659 311.38C78.6159 306.25 89.5558 301.1 100.376 295.7C103.976 293.9 109.316 292.25 109.976 287.79C110.166 285.609 110.206 283.417 110.096 281.23C110.266 258.72 110.096 236.23 109.916 213.69C109.756 186.17 109.549 158.65 109.296 131.13C109.216 122.057 109.129 112.99 109.036 103.93C109.036 101.24 109.326 98.57 108.036 96.19C104.226 89 97.6958 82.53 92.3258 76.46C89.9158 73.74 88.4258 73.97 84.8858 73.83L65.8858 73.08L33.5658 71.77C32.4753 71.7241 31.3916 71.9605 30.4193 72.4563C29.447 72.9521 28.619 73.6905 28.0157 74.6C27.2957 75.76 26.6258 78.45 28.8758 78.54H28.8959Z" fill="#DCA0FF"/>
<path d="M50.4355 77.63L54.2153 84.97C54.5753 85.67 55.7253 87.15 55.7653 87.97C55.9153 91.23 49.8555 93.39 47.4255 94.12C44.8055 94.91 40.1353 96.01 38.0453 93.56C37.5312 92.6473 37.1665 91.6581 36.9653 90.63L34.1354 82.45C33.1354 79.51 27.3452 82.97 28.1952 85.45C29.4352 89.04 30.3153 93.11 32.0153 96.45C35.2553 102.91 45.8554 99.71 50.8354 97.45C55.3054 95.4 63.2755 90.35 61.4255 84.34C60.2955 80.67 57.6955 77.05 55.9355 73.63C54.7255 71.29 49.1155 75.08 50.4355 77.63Z" fill="#DCA0FF"/>
<path d="M43.9733 84.6602C50.0536 82.3615 54.1228 78.224 53.0623 75.4189C52.0017 72.6137 46.2131 72.2032 40.1328 74.502C34.0524 76.8008 29.983 80.9383 31.0435 83.7434C32.1041 86.5485 37.8929 86.959 43.9733 84.6602Z" fill="white"/>
<path d="M50.2152 77.12C51.3352 81.97 35.2854 86.64 34.1454 82.12C33.0054 77.6 47.9754 73.12 50.4354 77.6C51.7254 79.94 57.3254 76.11 55.9354 73.6C52.8354 68.01 42.7752 71.17 38.4652 73.12C34.5252 74.91 26.0753 80.12 28.3053 85.67C30.6653 91.55 41.2152 88.37 45.2052 86.67C49.6652 84.78 57.5352 80.06 56.2052 74.09C55.4752 71.2 49.6152 74.54 50.2152 77.12Z" fill="#DCA0FF"/>
<path d="M334.68 82.3018C332.81 88.1418 309.239 82.1118 311.279 75.8518C312.459 72.2618 322.699 74.6318 325.369 75.4518C328.439 76.4018 334.78 78.8418 334.49 82.9418C334.24 86.4218 340.27 83.7118 340.49 81.1618C341.09 72.8218 328.84 69.6218 322.49 69.0918C316.73 68.6118 306.67 69.8418 305.16 76.9318C303.5 84.7618 315.759 88.3818 321.349 89.1418C327.709 90.0118 337.909 89.1418 340.269 81.8018C341.489 77.9618 335.48 79.7918 334.68 82.3018Z" fill="#DCA0FF"/>
<path d="M334.809 82.5819C335.459 86.1519 333.989 90.6919 333.309 94.2019C332.939 96.0919 333.089 97.2019 331.539 98.2619C328.649 100.152 322.539 98.9119 319.539 98.2019C315.109 97.1419 307.059 93.5319 307.389 87.9319C307.629 84.0319 309.499 79.3119 310.909 75.7019C312.319 72.0919 306.269 73.7619 305.319 76.1919C304.2 79.2728 303.255 82.4145 302.49 85.6019C301.94 87.6719 300.979 90.0019 301.409 92.1919C303.069 100.582 315.309 103.902 322.409 104.112C328.709 104.302 336.679 102.702 338.599 95.7819C339.889 91.0919 341.649 84.4519 340.769 79.6019C340.229 76.6719 334.349 79.9619 334.819 82.6019L334.809 82.5819Z" fill="#DCA0FF"/>
<path d="M274.299 98.4819C274.009 91.9419 273.689 85.4019 273.399 78.8619L268.019 84.2419C280.139 83.0619 292.139 80.5719 304.139 78.5719C309.439 77.6819 314.789 76.6919 320.139 76.2419C323.389 75.9719 324.86 76.8518 327.48 78.9018C335.21 84.9018 340.74 93.1319 347.97 99.5919C349.12 100.592 348.85 101.272 348.71 99.3619C348.74 99.6544 348.74 99.9493 348.71 100.242C348.581 101.819 348.558 103.402 348.639 104.982C348.139 141.649 347.65 178.292 347.17 214.912C347.01 226.802 346.73 238.692 346.76 250.582C346.76 257.702 347.33 264.822 347.94 271.922C348.02 272.842 347.759 275.362 348.309 276.002C348.469 276.192 350.829 275.392 349.649 275.692C348.649 275.942 347.72 276.162 346.75 276.392L320.75 282.572L307.91 285.572C306.51 285.902 303.42 287.322 301.97 286.982C300.34 286.592 297.259 283.432 295.829 282.432L283.829 274.002C281.909 272.662 278.04 271.002 276.76 269.002C275.36 266.812 276.99 261.002 277.26 258.532C277.67 254.582 278.08 250.632 278.26 246.662C278.47 240.862 278.26 235.032 278.21 229.232C277.73 191.899 276.953 154.592 275.879 117.312C275.879 116.152 275.88 114.992 275.76 113.832C275.5 110.082 267.659 114.252 267.889 117.772C268.799 131.172 268.609 144.722 268.889 158.142C269.389 180.452 269.89 202.762 270.21 225.072C270.31 232.022 270.459 238.992 270.399 245.952C270.269 251.693 269.849 257.423 269.139 263.122C268.589 268.122 267.139 272.672 271.559 276.032C278.559 281.302 285.919 286.082 293.079 291.092C295.779 292.982 297.7 294.092 301.24 293.432C303.65 293.002 306.04 292.292 308.42 291.722L337.559 284.802C343.559 283.382 354.139 282.742 356.109 275.522C356.849 272.792 355.99 269.402 355.76 266.642C355.42 262.482 355.109 258.322 354.899 254.152C354.759 251.152 354.71 248.242 354.74 245.282C354.74 239.212 354.87 233.132 354.94 227.052C355.426 187.719 355.95 148.365 356.51 108.992C356.57 105.172 357.09 101.042 356.68 97.2319C356.47 95.3519 355.68 94.7219 354.44 93.2919C351.23 89.6919 347.949 86.1418 344.569 82.6818C339.089 77.0918 332.669 68.8519 324.129 69.3219C312.129 69.9919 299.989 72.9918 288.129 74.9618C282.439 75.9018 276.74 76.8418 271 77.4018C268.38 77.6618 265.489 80.0019 265.619 82.7919C265.909 89.3319 266.22 95.8719 266.51 102.412C266.68 106.122 274.509 101.992 274.379 98.4719L274.299 98.4819Z" fill="#DCA0FF"/>
<path d="M298.329 104.512L274.729 114.912L277.969 114.632L270.289 109.842L271.049 111.582L277.749 87.1019L272.949 91.1819L304.849 86.0619C306.599 85.7819 308.849 84.5719 309.429 82.7319C309.869 81.2519 309.319 79.6819 307.429 79.9919L275.519 85.1119C274.41 85.2592 273.368 85.7235 272.516 86.449C271.665 87.1745 271.041 88.1304 270.719 89.2019L264.029 113.682C263.966 114.013 264.005 114.356 264.141 114.665C264.277 114.974 264.503 115.234 264.789 115.412C267.069 116.832 269.919 119.412 272.469 120.202C274.859 120.902 277.779 119.002 279.929 118.052L299.319 109.512C303.109 107.842 303.179 102.372 298.319 104.512H298.329Z" fill="#DCA0FF"/>
<path d="M267.549 85.3919C276.549 95.0419 287.029 106.392 299.989 110.262C317.449 115.412 344.159 116.012 355.519 98.6319C358.379 94.2519 351.699 94.7719 349.809 97.6319C345.369 104.432 335.929 106.632 328.379 107.132C319.139 107.692 307.889 106.662 299.479 102.472C289.719 97.6119 281.379 88.5619 274.019 80.6619C271.739 78.2119 265.389 83.0519 267.549 85.3719V85.3919Z" fill="#DCA0FF"/>
</g>
</svg>
