<svg width="38" height="21" viewBox="0 0 38 21" fill="none" xmlns="http://www.w3.org/2000/svg">
<g clip-path="url(#clip0_1_53)">
<path d="M1.31106 9.56409C11.0739 9.97109 20.9306 10.2876 30.6662 11.0322C32.8058 11.1981 35.8261 7.42958 32.9935 7.46877C22.9764 7.61649 12.8837 7.35119 2.86658 7.16729C1.59856 7.14619 -0.749864 9.47365 1.305 9.56108" fill="#145EFC"/>
<path d="M17.4019 2.95265C23.0611 5.00872 28.3965 7.80646 33.8681 10.2936C33.9679 9.58518 34.0708 8.87367 34.1707 8.1652C29.5677 11.5568 24.9707 14.9545 20.4161 18.4154C18.2705 20.0434 20.7188 21.2765 22.4135 20.0434C27.0286 16.6699 31.6013 13.2391 36.165 9.79322C36.8399 9.28674 37.6025 8.15921 36.4677 7.68288C30.9295 5.27106 25.4458 2.60896 19.7322 0.61318C18.4702 0.170009 15.6558 2.33463 17.3959 2.96774" fill="#145EFC"/>
</g>
<defs>
<clipPath id="clip0_1_53">
<rect width="36.5517" height="20" fill="white" transform="translate(0.5 0.537842)"/>
</clipPath>
</defs>
</svg>
