<svg width="243" height="171" viewBox="0 0 243 171" fill="none" xmlns="http://www.w3.org/2000/svg">
<path d="M12.6223 165.657C1.74233 130.117 9.44233 89.5767 31.3723 59.7167C53.8123 29.1767 101.002 5.13666 133.132 36.3367C146.412 49.2367 153.802 67.2067 158.242 84.8567C160.752 94.8167 163.292 106.427 159.492 116.387C156.142 125.157 148.032 129.277 139.152 130.567C122.432 132.997 97.5223 127.407 91.5923 109.287C85.6623 91.1667 100.792 70.4167 113.922 58.4167C143.432 31.4367 188.932 23.9367 225.722 39.1767C229.552 40.7667 237.332 33.4967 233.102 31.6967C194.972 15.4267 149.162 23.1067 116.492 48.0167C100.312 60.3567 84.1023 78.5467 81.2823 99.4467C78.0223 123.567 99.5223 136.657 120.802 138.827C140.822 140.867 164.072 133.097 169.522 111.557C172.352 100.357 169.702 88.3367 166.692 77.4567C163.912 67.3767 160.152 57.4567 155.012 48.3267C144.342 29.3467 126.752 15.0667 104.342 14.0767C81.9323 13.0867 59.1923 24.2067 42.2523 39.0567C6.04234 70.8067 -9.03767 123.277 5.46233 169.237C6.58233 172.787 13.5423 168.667 12.6223 165.657Z" fill="#DCA0FF"/>
<path d="M207.502 6.5467C215.122 18.5767 224.822 29.0967 233.422 40.4067L239.282 33.4367C226.632 34.5167 213.312 37.4267 201.702 42.6067C198.192 44.1767 196.012 51.3867 201.812 49.3867C212.852 45.5767 224.412 43.0367 235.942 41.2867C238.052 40.9667 244.392 37.2067 241.802 34.3167C232.332 23.7567 222.832 12.9467 215.172 0.976688C213.122 -2.23331 205.402 3.2167 207.512 6.5467H207.502Z" fill="#DCA0FF"/>
</svg>
