<?xml version="1.0" encoding="UTF-8"?><svg id="Ebene_1" xmlns="http://www.w3.org/2000/svg" viewBox="0 0 500 500"><defs><style>.cls-1{fill:#dca0ff;}</style></defs><path class="cls-1" d="m317.48,262.04c13.61-1.75,28.19-4.2,41.89-2.12l-1.53-3.46c-6.29,12.51-13.61,24.28-20.45,36.48-3.31,5.89,4.68,4.52,7.15,1.23,8.74-11.68,15.84-25.09,21.67-38.44.56-1.29.26-3.38-1.53-3.46-14.87-.67-29.34.59-44.09,2.49-2.14.28-4.78,1.83-5.49,3.99-.61,1.84.19,3.58,2.39,3.3h0Z"/><path class="cls-1" d="m141.73,266.03c6.69-19.13,19.39-34.33,36.91-44.5,16.28-9.45,34.01-14.57,52.57-8.81,8.27,2.56,16.01,7.36,21.32,14.27,6.97,9.06,7.91,20.38,10.23,31.19,1.98,9.26,5.57,19.12,13.52,24.91,7.64,5.57,19.88,5.89,28.95,5.11,9.59-.83,18.79-4.07,27.17-8.73,7.18-3.98,13.69-9.03,20.81-13.1,1.94-1.11,5.11-3.57,4.39-6.23s-4.1-2.11-5.86-1.09c-14.18,8.12-26.43,19.06-43.46,20.41-10.6.84-22.78-.32-29.37-9.58-6.97-9.8-7.23-22.25-10.44-33.45-5.26-18.34-20.37-29.76-38.87-32.85-19.08-3.19-37.07,3-53.34,12.65-19.71,11.69-34.54,28.67-42.03,50.47-1.76,5.13,6.34,2.66,7.5-.66h0Z"/></svg>