<svg width="233" height="95" viewBox="0 0 233 95" fill="none" xmlns="http://www.w3.org/2000/svg">
<path d="M183.499 59.3054C197.109 57.5554 211.689 55.1054 225.389 57.1854L223.859 53.7254C217.569 66.2354 210.249 78.0054 203.409 90.2054C200.099 96.0954 208.089 94.7254 210.559 91.4354C219.299 79.7554 226.399 66.3454 232.229 52.9954C232.789 51.7054 232.489 49.6154 230.699 49.5354C215.829 48.8654 201.359 50.1254 186.609 52.0254C184.469 52.3054 181.829 53.8554 181.119 56.0154C180.509 57.8554 181.309 59.5954 183.509 59.3154L183.499 59.3054Z" fill="#DCA0FF"/>
<path d="M7.74918 63.2954C14.4392 44.1654 27.1392 28.9654 44.6592 18.7954C60.9392 9.34539 78.6692 4.22539 97.2292 9.98539C105.499 12.5454 113.239 17.3454 118.549 24.2554C125.519 33.3154 126.459 44.6354 128.779 55.4454C130.759 64.7054 134.349 74.5654 142.299 80.3554C149.939 85.9254 162.179 86.2454 171.249 85.4654C180.839 84.6354 190.039 81.3954 198.419 76.7354C205.599 72.7554 212.109 67.7054 219.229 63.6354C221.169 62.5254 224.339 60.0654 223.619 57.4054C222.899 54.7454 219.519 55.2954 217.759 56.3154C203.579 64.4354 191.329 75.3754 174.299 76.7254C163.699 77.5654 151.519 76.4054 144.929 67.1454C137.959 57.3454 137.699 44.8954 134.489 33.6954C129.229 15.3554 114.119 3.93539 95.6192 0.845392C76.5392 -2.34461 58.5492 3.84539 42.2792 13.4954C22.5692 25.1854 7.73918 42.1654 0.249177 63.9654C-1.51082 69.0954 6.58918 66.6254 7.74918 63.3054V63.2954Z" fill="#DCA0FF"/>
</svg>
